<svg xmlns="http://www.w3.org/2000/svg" width="1365.3" height="1365.3" version="1.0" viewBox="0 0 1024 1024"><path d="M0 0v1024h1024V0zm536.6 62.6a450 450 0 0 1 175.6 46.3 21.6 21.6 0 0 1 7.6 32.3l-45.7 60.1a21.6 21.6 0 0 1-26.1 6.6 331 331 0 0 0-136-29 333 333 0 0 0-333 333c0 183.8 149.2 333 333 333a331 331 0 0 0 152.6-37 21.6 21.6 0 0 1 27 6l45.4 59.7a21.6 21.6 0 0 1-6.7 31.9A448 448 0 0 1 512 962 450 450 0 0 1 62 511.9 450 450 0 0 1 536.6 62.6m294.5 143a22 22 0 0 1 17 7A448 448 0 0 1 962 511.9a448 448 0 0 1-100.6 283.4 21.6 21.6 0 0 1-33.7-.6l-46.4-61a22 22 0 0 1-.2-25.9 331 331 0 0 0 64-196c0-80-28.3-153.3-75.4-210.8a21.6 21.6 0 0 1-.6-26.7l45.7-60.2a22 22 0 0 1 16.3-8.6M649.6 319.6a21.6 21.6 0 0 1 21.3 27.9L566.3 691.3a21.6 21.6 0 0 1-40.4 2.4l-53-120.2-130-19.6a21.6 21.6 0 0 1-8.2-39.6l303.9-191.2a22 22 0 0 1 11-3.4"/></svg>