<svg xmlns="http://www.w3.org/2000/svg" width="24" height="24" viewBox="-2 -3 24 24">
  <path fill="none" stroke="currentColor" stroke-linecap="round" stroke-linejoin="round" stroke-width=".918" d="M15.28 4.952c.394-.55.912-1.06 1.457-1.375 1.719-.992 3.533-.856 4.385.578.853 1.437.386 3.03-1.228 4.121-.788.476-1.553.771-2.392.9M4.722 4.951c-.394-.55-.912-1.06-1.457-1.375-1.719-.992-3.533-.856-4.385.579-.853 1.437-.386 3.029 1.228 4.12.789.476 1.555.772 2.394.9"/>
  <path fill="none" stroke="currentColor" stroke-linecap="round" stroke-linejoin="round" stroke-width=".918" d="M11.75 16.53c2.607-.787 5.476-3.112 5.703-6.065v0c.297-3.862-2.079-6.571-7.457-6.484-5.378.088-7.69 2.646-7.457 6.484.181 2.978 3.08 5.312 5.7 6.081"/>
  <path fill="currentColor" d="M12.54 12.21a1.078 1.078 0 1 0 2.156.002 1.078 1.078 0 0 0-2.156-.002m-7.233 0a1.088 1.088 0 1 0 2.176.002 1.088 1.088 0 0 0-2.176-.002"/>
  <path fill="none" stroke="currentColor" stroke-linecap="round" stroke-width=".918" d="m5.559 15.43-1.406 1.862m10.29-1.862 1.406 1.862m-12.25-3.704-2.262.924m14.95-.924 2.262.924"/>
  <path fill="none" stroke="currentColor" stroke-linecap="round" stroke-linejoin="round" stroke-width=".918" d="M10 13.98c-1.182 0-1.937.821-1.911 1.833.028 1.096.837 1.833 1.911 1.833s1.909-.85 1.911-1.833c.002-1.012-.729-1.833-1.911-1.833"/>
</svg>
