<svg xmlns="http://www.w3.org/2000/svg" width="128" height="128" viewBox="0 0 24 24"><path fill="currentColor" d="M22 6c-.32-2.3-2.3-4.1-4.8-4.5-.41-.06-2-.28-5.6-.28h-.03c-3.6 0-4.3.22-4.8.28-2.3.34-4.5 2-5 4.3-.25 1.2-.28 2.4-.23 3.6.07 1.7.08 3.3.23 5a23 23 0 0 0 .56 3.3c.5 2 2.5 3.7 4.5 4.4 2.1.71 4.4.83 6.6.34q.36-.08.71-.19c.52-.16 1.2-.35 1.6-.68l.02-.04v-1.6l-.03-.05h-.03a18 18 0 0 1-4.2.5c-2.4 0-3.2-1.2-3.3-1.6a5 5 0 0 1-.29-1.4l.04-.04h.02q2.1.5 4.1.5l.99-.01c1.4-.04 2.9-.11 4.3-.38l.1-.03c2.2-.4 4.3-1.7 4.5-5l.03-1.5c0-.46.15-3.2-.03-5m-3.4 8.3h-2.3v-5.6q0-1.8-1.5-1.8-1.6 0-1.6 2.2v3.1h-2.3v-3.1q0-2.1-1.6-2.2-1.5 0-1.5 1.8v5.6h-2.3v-5.8q0-1.8.9-2.8.9-1.1 2.4-1.1 1.8 0 2.7 1.4l.58 1 .58-1q.9-1.4 2.7-1.4 1.5 0 2.4 1.1t.9 2.8z"/></svg>