<svg xmlns="http://www.w3.org/2000/svg" xml:space="preserve" viewBox="30.53 31.97 66.92 64.05"><g style="fill:#fff;stroke-width:2.22112" transform="translate(-237.687 -115.36)scale(1.70163)"><circle cx="166.688" cy="95.647" r="9.048" style="fill:#fff;stroke-width:.587669"/><rect width="16.412" height="16.412" x="158.414" y="107.798" rx="4.377" ry="4.377" style="fill:#fff;stroke-width:.587669"/><path d="M69.514 58.833H57.486a2.444 2.444 60 0 1-2.117-3.666l.89-1.542 5.124-8.875a2.444 2.444 0 0 1 4.234 0l.89 1.542 5.124 8.875a2.444 2.444 120 0 1-2.117 3.666" style="fill:#fff;stroke-width:.553485" transform="scale(1.06914 -1.06914)rotate(-30 -146.513 -226)"/><path d="M194.992 116.11c0 .88-.708 1.587-1.588 1.587h-12.7c-.88 0-1.587-.708-1.587-1.587 0-.88.708-1.588 1.587-1.588h12.7c.88 0 1.588.708 1.588 1.588m-7.938-7.938c.88 0 1.588.708 1.588 1.588v12.7c0 .88-.708 1.587-1.588 1.587s-1.587-.708-1.587-1.587v-12.7c0-.88.708-1.588 1.587-1.588" style="fill:#fff;stroke-width:5.87669"/></g></svg>