<svg width="150" xmlns="http://www.w3.org/2000/svg" height="150" id="screenshot-8117ad21-6eed-80e1-8006-c0c338343b18" viewBox="0 0 150 150" xmlns:xlink="http://www.w3.org/1999/xlink" fill="none" version="1.1"><g id="shape-8117ad21-6eed-80e1-8006-c0c338343b18" width="128" height="128" rx="0" ry="0" style="fill: rgb(0, 0, 0);"><g id="shape-8117ad21-6eed-80e1-8006-c0c338349f04" style="display: none;"><g class="fills" id="fills-8117ad21-6eed-80e1-8006-c0c338349f04"><rect width="150" height="150" x="0" transform="matrix(1.000000, 0.000000, 0.000000, 1.000000, 0.000000, 0.000000)" style="fill: none;" ry="0" fill="none" rx="0" y="0"/></g></g><g id="shape-8117ad21-6eed-80e1-8006-c0c33834f879"><g class="fills" id="fills-8117ad21-6eed-80e1-8006-c0c33834f879"><path d="M87.953125,18.89996337890625L65.54058837890625,54.81243896484375L108.22808837890625,54.88128662109375M53.7374267578125,73.06256103515625L17.5218505859375,130.38446044921875" fill="none" stroke-linecap="round" stroke-linejoin="round" style="fill: none;"/></g><g fill="none" stroke-linecap="round" stroke-linejoin="round" id="strokes-9cee7a6d-67e1-801a-8006-cd11a59a74f7-8117ad21-6eed-80e1-8006-c0c33834f879" class="strokes"><g class="stroke-shape"><path d="M87.953125,18.89996337890625L65.54058837890625,54.81243896484375L108.22808837890625,54.88128662109375M53.7374267578125,73.06256103515625L17.5218505859375,130.38446044921875" style="fill: none; stroke-width: 8; stroke: rgb(255, 255, 255); stroke-opacity: 1;"/></g></g></g><g id="shape-8117ad21-6eed-80e1-8006-c0c3383513b2"><g class="fills" id="fills-8117ad21-6eed-80e1-8006-c0c3383513b2"><path d="M108.23126220703125,54.88128662109375C125.3565673828125,62.302978515625,134.91851806640625,80.7283935546875,131.12887573242188,99.0040283203125C127.33929443359375,117.27960205078125,111.23941040039062,130.3839111328125,92.574951171875,130.38446044921875L17.5250244140625,130.38446044921875M40.04058837890625,94.403076171875C22.915283203125,86.9814453125,13.353424072265625,68.5560302734375,17.14306640625,50.2803955078125C20.93267822265625,32.0047607421875,37.03240966796875,18.9005126953125,55.6968994140625,18.89996337890625L130.75,18.89996337890625L98.6812744140625,69.6624755859375M83.50936889648438,93.675048828125L60.3187255859375,130.38446044921875" fill="none" stroke-linecap="round" stroke-linejoin="round" style="fill: none;"/></g><g fill="none" stroke-linecap="round" stroke-linejoin="round" id="strokes-9cee7a6d-67e1-801a-8006-cd11a59b3453-8117ad21-6eed-80e1-8006-c0c3383513b2" class="strokes"><g class="stroke-shape"><path d="M108.23126220703125,54.88128662109375C125.3565673828125,62.302978515625,134.91851806640625,80.7283935546875,131.12887573242188,99.0040283203125C127.33929443359375,117.27960205078125,111.23941040039062,130.3839111328125,92.574951171875,130.38446044921875L17.5250244140625,130.38446044921875M40.04058837890625,94.403076171875C22.915283203125,86.9814453125,13.353424072265625,68.5560302734375,17.14306640625,50.2803955078125C20.93267822265625,32.0047607421875,37.03240966796875,18.9005126953125,55.6968994140625,18.89996337890625L130.75,18.89996337890625L98.6812744140625,69.6624755859375M83.50936889648438,93.675048828125L60.3187255859375,130.38446044921875" style="fill: none; stroke-width: 10; stroke: rgb(255, 255, 255); stroke-opacity: 1;"/></g></g></g><g id="shape-8117ad21-6eed-80e1-8006-c0c338357c0a"><g class="fills" id="fills-8117ad21-6eed-80e1-8006-c0c338357c0a"><path d="M67.40625,75.984375C68.70071411132812,75.984375,69.75,77.0335693359375,69.75,78.328125C69.75,79.62249755859375,68.70071411132812,80.671875,67.40625,80.671875C66.11181640625,80.671875,65.0625,79.62249755859375,65.0625,78.328125C65.0625,77.0335693359375,66.11181640625,75.984375,67.40625,75.984375M83.80307006835938,75.984375C85.09979248046875,75.98785400390625,86.14865112304688,77.0408935546875,86.14682006835938,78.33746337890625C86.1451416015625,79.6341552734375,85.093505859375,80.684326171875,83.796875,80.684326171875C82.50027465820312,80.684326171875,81.44854736328125,79.6341552734375,81.44683837890625,78.33746337890625C81.44512939453125,77.0408935546875,82.49395751953125,75.98785400390625,83.79058837890625,75.984375Z" style="fill: rgb(255, 255, 255);"/></g></g><g id="shape-8117ad21-6eed-80e1-8006-c0c338357c0b"><g class="fills" id="fills-8117ad21-6eed-80e1-8006-c0c338357c0b"><path d="M91.590576171875,64.121826171875L85.68756103515625,69.8375244140625M58.6875,64.1187744140625L64.6031494140625,69.82196044921875M94.42816162109375,85.99072265625C94.29376220703125,75.433349609375,85.6971435546875,66.9454345703125,75.13906860351562,66.9454345703125C64.5809326171875,66.9454345703125,55.984405517578125,75.433349609375,55.850006103515625,85.99072265625Z" fill="none" stroke-linecap="round" stroke-linejoin="round" style="fill: none;"/></g><g fill="none" stroke-linecap="round" stroke-linejoin="round" id="strokes-9cee7a6d-67e1-801a-8006-cd11a59bf007-8117ad21-6eed-80e1-8006-c0c338357c0b" class="strokes"><g class="stroke-shape"><path d="M91.590576171875,64.121826171875L85.68756103515625,69.8375244140625M58.6875,64.1187744140625L64.6031494140625,69.82196044921875M94.42816162109375,85.99072265625C94.29376220703125,75.433349609375,85.6971435546875,66.9454345703125,75.13906860351562,66.9454345703125C64.5809326171875,66.9454345703125,55.984405517578125,75.433349609375,55.850006103515625,85.99072265625Z" style="fill: none; stroke-width: 6; stroke: rgb(255, 255, 255); stroke-opacity: 1;"/></g></g></g></g></svg>