<svg width="100%" height="100%" viewBox="0 0 1024 1024" version="1.1" xmlns="http://www.w3.org/2000/svg" xmlns:xlink="http://www.w3.org/1999/xlink" xml:space="preserve" style="fill-rule:evenodd;clip-rule:evenodd;stroke-linejoin:round;stroke-miterlimit:2;">
    <g id="Simple-CO-Arrow">
        <g transform="matrix(2.728,0,0,2.43649,-771.412,-692.56)">
            <path d="M766.232,277.407C766.232,195.787 707.047,129.521 634.148,129.521L306.769,129.521C233.87,129.521 174.686,195.787 174.686,277.407L174.686,573.18C174.686,654.801 233.87,721.067 306.769,721.067L634.148,721.067C707.047,721.067 766.232,654.801 766.232,573.18L766.232,277.407Z" style="fill:rgb(97,128,91);"></path>
        </g>
        <g transform="matrix(1.05003,0,0,1.05003,-25.6164,28.0528)">
            <path d="M680.057,734.873C681.719,737.045 682.367,739.827 681.835,742.51C681.304,745.193 679.644,747.518 677.28,748.893C628.593,776.904 572.154,792.934 512,792.934C328.739,792.934 179.954,644.149 179.954,460.888C179.954,277.627 328.739,128.842 512,128.842C567.741,128.842 620.292,142.606 666.438,166.919C668.905,168.232 670.67,170.564 671.265,173.295C671.86,176.026 671.223,178.881 669.525,181.101C660.581,192.807 644.979,213.205 637.136,223.46C634.379,227.064 629.462,228.222 625.386,226.228C591.1,209.609 552.63,200.291 512,200.291C368.172,200.291 251.403,317.06 251.403,460.888C251.403,604.716 368.172,721.485 512,721.485C556.776,721.485 598.929,710.168 635.753,690.241C639.874,687.989 645.023,689.08 647.876,692.81C655.823,703.188 671.285,723.404 680.057,734.873ZM739.619,234.477C741.313,232.262 743.892,230.901 746.677,230.752C749.462,230.604 752.171,231.684 754.091,233.706C809.862,293.125 844.046,373.046 844.046,460.888C844.046,544.261 813.252,620.499 762.427,678.838C760.545,680.974 757.804,682.156 754.959,682.057C752.113,681.959 749.461,680.591 747.732,678.329C738.604,666.413 722.857,645.825 715.095,635.677C712.422,632.181 712.492,627.31 715.264,623.892C751.131,579.249 772.597,522.556 772.597,460.888C772.597,395.003 748.094,334.796 707.712,288.89C704.685,285.484 704.498,280.409 707.267,276.789C715.112,266.518 730.691,246.149 739.619,234.477Z" style="fill:rgb(249,245,238);"></path>
            <g transform="matrix(1.31674,1.00599,-1.00599,1.31674,419.032,-1093.65)">
                <path d="M555.535,775.618C553.43,776.777 550.827,776.503 549.008,774.932C547.19,773.362 546.54,770.826 547.38,768.575C561.048,731.919 596.854,635.894 610.497,599.308C611.335,597.059 613.482,595.568 615.882,595.568C618.281,595.568 620.428,597.059 621.267,599.308C634.909,635.894 670.715,731.919 684.383,768.575C685.223,770.826 684.573,773.362 682.755,774.932C680.937,776.503 678.333,776.777 676.228,775.618C654.889,763.879 615.882,742.42 615.882,742.42C615.882,742.42 576.874,763.879 555.535,775.618Z" style="fill:rgb(249,245,238);"></path>
            </g>
        </g>
    </g>
    <g id="Globe-People-Around-1">
        <rect x="-71.418" y="-84.979" width="1169.96" height="1127.29" style="fill:rgb(97,128,91);"></rect>
        <g id="Globus-Base" transform="matrix(1.38679,0,0,1.38679,-420.488,-276.938)">
            <circle cx="672.207" cy="583.752" r="176.324" style="fill:rgb(97,128,91);"></circle>
        </g>
        <g transform="matrix(1,0,0,1,1.13687e-13,-33.3323)">
            <path d="M251.697,512C259.661,498.265 256.963,517.18 275.551,534.771C283.618,542.405 300.183,548.157 314.686,556.763C318.483,559.015 330,568.779 333.155,572.314C349.103,590.175 337.612,617.236 346.815,639.64C354.196,657.61 365.331,668.643 393.658,688.483C401.165,693.74 413.85,700.525 420.195,709.569C427.283,719.673 434.709,730.181 434.469,742.995C433.837,776.784 461.352,791.655 480.498,810.46C227.021,794.547 215.422,574.566 251.697,512Z" style="fill:rgb(249,245,238);"></path>
        </g>
        <g transform="matrix(1,0,0,1,1.13687e-13,-33.3323)">
            <path d="M444.629,315.469C463.973,335.167 485.079,355.482 488.92,383.368C491.882,404.878 477.24,419.954 443.666,451.433C411.214,474.979 386.982,499.105 394.806,523.28C398.505,544.236 410.475,553.009 424.931,561.309C444.741,565.708 461.668,568.535 474.571,569.167C514.224,576.653 531.284,590.666 542.636,606.327C562.08,630.162 563.543,656.566 555.513,684.326C544.369,701.72 535.282,717.725 529.203,739.317C523.64,759.075 533.567,805.841 550.056,810.46L625.05,815.306L723.653,753.127L704.285,729.731C694.958,723.91 682.667,707.552 679.87,691.685C676.43,676.74 678.036,659.904 682.446,642.016C685.514,617.114 685.018,599.342 680.238,590.139C672.615,553.003 624.115,579.531 586.051,552.243C574.227,535.963 577.583,504.878 593.747,487.71C612.541,467.749 655.71,453.211 670.672,436.716C681.658,424.605 688.816,404.509 688.7,391.094L678.03,358.349L567.45,308.815L444.629,315.469Z" style="fill:rgb(249,245,238);"></path>
        </g>
        <g transform="matrix(1,0,0,1,0,4.52326)">
            <path d="M511.074,283.557C646.388,283.557 756.245,393.414 756.245,528.728C756.245,664.042 646.388,773.9 511.074,773.9C375.76,773.9 265.902,664.042 265.902,528.728C265.902,393.414 375.76,283.557 511.074,283.557ZM511.074,306.652C633.641,306.652 733.15,406.161 733.15,528.728C733.15,651.295 633.641,750.804 511.074,750.804C388.507,750.804 288.998,651.295 288.998,528.728C288.998,406.161 388.507,306.652 511.074,306.652Z" style="fill:rgb(97,128,91);"></path>
        </g>
        <g id="People" transform="matrix(1.79788,0,0,1.79788,-696.829,-516.915)">
            <path d="M566.81,441.887C584.815,428.575 605.439,418.606 627.761,412.902C638.549,425.34 654.466,433.212 672.207,433.212C689.876,433.212 705.735,425.404 716.521,413.053C738.97,418.873 759.689,429.01 777.736,442.522C776.386,447.466 775.664,452.668 775.664,458.038C775.664,490.5 802.019,516.855 834.481,516.855C840.023,516.855 845.387,516.087 850.472,514.652C862.116,527.251 869.976,551.071 869.976,578.357C869.976,579.939 869.95,581.51 869.898,583.068C870.402,594.946 868.482,615.88 864.055,631.111C857.527,653.568 841.635,679.894 814.682,707.305C792.402,729.964 770.089,748.459 746.322,765.402C727.143,779.073 693.479,795.375 678.904,802.197C674.431,804.286 669.262,804.286 664.789,802.197C650.214,795.375 616.55,779.073 597.372,765.402C573.605,748.459 551.292,729.964 529.012,707.305C502.058,679.894 486.166,653.568 479.638,631.111C475.211,615.88 473.291,594.946 473.796,583.068C473.743,581.51 473.717,579.939 473.717,578.357C473.717,550.9 481.676,526.952 493.441,514.416C498.765,516.003 504.405,516.855 510.242,516.855C542.704,516.855 569.059,490.5 569.059,458.038C569.059,452.438 568.275,447.02 566.81,441.887ZM671.847,447.746C596.948,447.941 536.201,508.808 536.201,583.752C536.201,658.696 596.948,719.564 671.847,719.758C746.745,719.564 807.493,658.696 807.493,583.752C807.493,508.808 746.745,447.941 671.847,447.746Z" style="fill:rgb(249,245,238);"></path>
        </g>
        <g transform="matrix(1.23788,0,0,1.23788,-413.264,112.832)">
            <circle cx="512" cy="156.52" r="67.302" style="fill:rgb(249,245,238);"></circle>
        </g>
        <g transform="matrix(1.23788,0,0,1.23788,169.68,112.832)">
            <circle cx="512" cy="156.52" r="67.302" style="fill:rgb(249,245,238);"></circle>
        </g>
        <g transform="matrix(1.23788,0,0,1.23788,-122.071,-35.9784)">
            <circle cx="512" cy="156.52" r="67.302" style="fill:rgb(249,245,238);"></circle>
        </g>
    </g>
</svg>
